# xmcd CD database file generated by Grip 3.0.5
# 
# Track frame offsets:
#       225
#       9558
#       19279
#       32277
#       43566
#       54984
#       65506
#       75359
#       87093
#       96120
# 
# Disc length: 1424 seconds
# 
# Revision: 1
# Processed by: cddbd v1.4PL0 Copyright (c) Steve Scherf et al.
# Submitted via: Grip 3.0.5
# 
DISCID=68058d0a
DTITLE=Jim and Jesse - The Best of Jim and Jesse: Border Ride
DYEAR=1900
DGENRE=Country
TTITLE0=Border Ride
TTITLE1=I'll Love Nobody But You
TTITLE2=Have You Lost Your Love for Me
TTITLE3=Changing the Words to My Love Song
TTITLE4=Hard Hearted
TTITLE5=Let Me Whisper
TTITLE6=Pardon Me
TTITLE7=Dixie Howdown
TTITLE8=Let Me Walk with Thee
TTITLE9=Kneel by the Altar
EXTD=
EXTT0=
EXTT1=
EXTT2=
EXTT3=
EXTT4=
EXTT5=
EXTT6=
EXTT7=
EXTT8=
EXTT9=
PLAYORDER=
